<?xml version="1.0" encoding="UTF-8" standalone="no"?>
<!-- Generator: Adobe Illustrator 18.1.1, SVG Export Plug-In . SVG Version: 6.00 Build 0)  -->

<svg
   xmlns:dc="http://purl.org/dc/elements/1.1/"
   xmlns:cc="http://creativecommons.org/ns#"
   xmlns:rdf="http://www.w3.org/1999/02/22-rdf-syntax-ns#"
   xmlns:svg="http://www.w3.org/2000/svg"
   xmlns="http://www.w3.org/2000/svg"
   xmlns:sodipodi="http://sodipodi.sourceforge.net/DTD/sodipodi-0.dtd"
   xmlns:inkscape="http://www.inkscape.org/namespaces/inkscape"
   version="1.1"
   id="Layer_1"
   x="0px"
   y="0px"
   viewBox="0 0 24 24"
   enable-background="new 0 0 512 512"
   xml:space="preserve"
   sodipodi:docname="ios-folder-open.svg"
   width="24"
   height="24"
   inkscape:version="0.92.3 (2405546, 2018-03-11)"><metadata
   id="metadata13"><rdf:RDF><cc:Work
       rdf:about=""><dc:format>image/svg+xml</dc:format><dc:type
         rdf:resource="http://purl.org/dc/dcmitype/StillImage" /><dc:title></dc:title></cc:Work></rdf:RDF></metadata><defs
   id="defs11" /><sodipodi:namedview
   pagecolor="#ffffff"
   bordercolor="#666666"
   borderopacity="1"
   objecttolerance="10"
   gridtolerance="10"
   guidetolerance="10"
   inkscape:pageopacity="0"
   inkscape:pageshadow="2"
   inkscape:window-width="1920"
   inkscape:window-height="990"
   id="namedview9"
   showgrid="false"
   inkscape:zoom="3.6875"
   inkscape:cx="146.01404"
   inkscape:cy="-10.466722"
   inkscape:window-x="0"
   inkscape:window-y="0"
   inkscape:window-maximized="1"
   inkscape:current-layer="Layer_1" />
<g
   id="g6"
   transform="matrix(0.04911801,0,0,0.04911801,-0.66307342,-0.14186848)">
	<path
   d="m 448,119 c 0,-13.3 -9.4,-23 -22.8,-23 H 230.9 c -2.8,0 -4.3,-0.6 -6.1,-2.4 L 202.3,71.1 202.1,70.9 C 197.2,66.3 193.2,64 184.8,64 H 88.7 C 74.9,64 64,74.3 64,87 v 57 h 384 z"
   id="path2"
   inkscape:connector-curvature="0" />
	<path
   d="m 64,160 c -4,0 -7.1,0 -8.3,0 -12.8,0 -25.3,5.1 -23.5,24.3 1.8,19.2 23.5,238.7 23.5,238.7 2.7,17.8 11.7,25 25,25 h 352.5 c 12.7,0 21,-7.8 23,-25 0,0 22.2,-212.9 23.6,-233.5 1.4,-20.5 -8.9,-29.5 -23.6,-29.5 -1.1,0 -4.3,0 -8.3,0 z"
   id="path4"
   inkscape:connector-curvature="0" />
</g>
</svg>